<?xml version="1.0" encoding="UTF-8" standalone="no"?>
<!-- Created with Inkscape (http://www.inkscape.org/) -->

<svg
   width="36.406197mm"
   height="22.60623mm"
   viewBox="0 0 36.406197 22.60623"
   version="1.1"
   id="svg1"
   xml:space="preserve"
   inkscape:version="1.4.2 (ebf0e940d0, 2025-05-08)"
   sodipodi:docname="logo.svg"
   xmlns:inkscape="http://www.inkscape.org/namespaces/inkscape"
   xmlns:sodipodi="http://sodipodi.sourceforge.net/DTD/sodipodi-0.dtd"
   xmlns="http://www.w3.org/2000/svg"
   xmlns:svg="http://www.w3.org/2000/svg"><sodipodi:namedview
     id="namedview1"
     pagecolor="#ffffff"
     bordercolor="#666666"
     borderopacity="1.0"
     inkscape:showpageshadow="2"
     inkscape:pageopacity="0.0"
     inkscape:pagecheckerboard="0"
     inkscape:deskcolor="#d1d1d1"
     inkscape:document-units="mm"
     inkscape:zoom="0.59868374"
     inkscape:cx="359.95633"
     inkscape:cy="510.28611"
     inkscape:window-width="2048"
     inkscape:window-height="1152"
     inkscape:window-x="0"
     inkscape:window-y="0"
     inkscape:window-maximized="1"
     inkscape:current-layer="layer1" /><defs
     id="defs1" /><g
     inkscape:label="Livello 1"
     inkscape:groupmode="layer"
     id="layer1"
     transform="translate(-5.8402653,-4.4614175)"><path
       style="fill:#000000;stroke-width:0.999996"
       d="m 8.2797514,27.002309 c -1.211242,-0.259839 -2.067636,-1.07549 -2.3605142,-2.248208 -0.084184,-0.337089 -0.085145,-0.454802 -0.07396,-9.118726 l 0.011315,-8.7772246 0.1379343,-0.407542 c 0.153655,-0.4539956 0.381187,-0.8365132 0.668458,-1.1237832 0.271731,-0.2717313 0.773526,-0.5870753 1.158879,-0.7282731 l 0.330352,-0.1210454 6.2704505,-0.012287 c 4.442771,-0.00868 6.350658,0.00146 6.545624,0.034781 0.321414,0.054965 0.612679,0.1716847 0.929461,0.3724462 0.720945,0.4568998 0.998854,0.4615993 1.622383,0.027434 0.176562,-0.1229408 0.451626,-0.2667135 0.616418,-0.3221908 l 0.29758,-0.1001827 7.524542,-0.01181 c 6.763869,-0.010611 7.558924,-0.00486 7.864635,0.056326 0.659318,0.1321008 1.245875,0.4374229 1.672015,0.8703375 0.266597,0.2708395 0.516509,0.7573905 0.654628,1.2744905 l 0.09651,0.361349 v 8.6935986 c 0,8.367118 -0.0024,8.705585 -0.07994,9.012446 -0.315092,1.257041 -1.238115,2.092267 -2.534541,2.293433 -0.235915,0.03659 -2.264678,0.04606 -7.800866,0.03647 l -7.48203,-0.01299 -0.242999,-0.09192 c -0.13365,-0.05053 -0.403224,-0.188701 -0.599056,-0.306989 -0.519719,-0.313927 -0.906078,-0.393927 -1.198497,-0.248159 -0.04677,0.02332 -0.238063,0.142409 -0.425114,0.264662 -0.646095,0.422293 0.0919,0.381389 -7.03566,0.389928 -5.4360545,0.0065 -6.3100505,-0.0011 -6.5680325,-0.05633 z M 20.948188,26.238772 c 0.415496,-0.143637 0.62092,-0.268317 0.897045,-0.544441 0.278276,-0.278277 0.439959,-0.552711 0.558947,-0.948735 0.06864,-0.228456 0.0745,-0.831731 0.08596,-8.853744 C 22.50376,6.3731804 22.51841,6.9221684 22.23492,6.3407404 22.068793,6.0000212 21.74483,5.6480083 21.422478,5.4579508 20.926721,5.1656541 21.256596,5.1789459 14.497603,5.1789459 c -6.6350876,0 -6.3002776,-0.011656 -6.8083326,0.2371086 -0.480576,0.2353161 -0.869021,0.6936489 -1.057468,1.2477289 l -0.09503,0.279391 -0.01134,8.6085846 c -0.01251,9.495243 -0.0256,8.998031 0.251953,9.565098 0.167097,0.341389 0.603691,0.791563 0.928713,0.957598 0.574379,0.293402 0.03015,0.27257 6.8440956,0.262014 6.093376,-0.0094 6.144975,-0.01023 6.397987,-0.09769 z M 8.2706544,25.820818 c -0.572621,-0.18033 -0.914502,-0.572109 -1.059486,-1.214119 -0.06119,-0.270981 -0.06094,-0.312164 0.0031,-0.498405 0.173013,-0.502973 0.666508,-2.941394 0.726338,-3.588932 l 0.02611,-0.282573 0.284039,0.282573 c 0.303264,0.3017 0.60245,0.473065 1.012305,0.579817 0.359597,0.09366 10.2016636,0.09585 10.5529776,0.0023 0.378849,-0.100834 0.692251,-0.280553 0.981724,-0.562966 0.151092,-0.147411 0.277475,-0.268017 0.280847,-0.268017 0.0034,0 0.01836,0.129129 0.03331,0.286955 0.03328,0.351433 0.193515,1.178939 0.393064,2.029922 0.300803,1.282796 0.408295,1.862746 0.382145,2.06181 -0.03509,0.267128 -0.25212,0.689383 -0.438387,0.852924 -0.08614,0.07563 -0.262695,0.187262 -0.392359,0.248076 l -0.235753,0.11058 -6.185428,0.0082 c -5.0392356,0.0067 -6.2186246,-0.0023 -6.3645706,-0.04819 z m 0.858772,-4.988732 c -0.494682,-0.171851 -0.87201,-0.500127 -1.07667,-0.936705 l -0.113097,-0.241259 -0.02125,-1.891763 c -0.01169,-1.040469 -0.01169,-3.833477 0,-6.206684 l 0.02125,-4.3149206 0.114606,-0.244554 c 0.159767,-0.34092 0.496354,-0.683005 0.837138,-0.850813 L 9.1705714,6.007921 14.357939,5.986659 c 5.575088,-0.022842 5.501876,-0.025247 5.873827,0.1927314 0.394984,0.231476 0.792311,0.77443 0.840811,1.148981 0.03371,0.260402 0.06949,4.8126786 0.06871,8.7442746 l -6.69e-4,3.560465 -0.132145,0.26178 c -0.178422,0.353453 -0.519564,0.686069 -0.877587,0.855657 l -0.287967,0.136404 -5.250174,0.0096 c -4.8952266,0.0089 -5.2645826,0.0045 -5.4632876,-0.06445 z m 3.5927796,-6.406698 0.02125,-2.8906 0.514762,0.871302 c 0.283119,0.479216 0.596748,1.014778 0.696954,1.190138 0.214378,0.375161 0.550929,0.933188 1.076843,1.785485 0.209199,0.33903 0.54944,0.895909 0.756089,1.237508 0.20665,0.341602 0.40259,0.643387 0.435423,0.670634 0.04143,0.03438 0.272573,0.04596 0.755481,0.03783 l 0.695786,-0.01169 0.01169,-3.804784 c 0.0064,-2.092629 0.0012,-3.8478236 -0.01144,-3.9004316 -0.02266,-0.09376 -0.03539,-0.09566 -0.642275,-0.09566 H 16.41362 l 0.02351,2.6888536 c 0.01293,1.478871 0.0343,2.803635 0.04747,2.943924 l 0.02396,0.25507 -0.09136,-0.106279 c -0.05024,-0.05846 -0.225977,-0.335842 -0.390519,-0.616417 -0.282252,-0.481295 -0.876824,-1.475187 -2.415994,-4.038596 l -0.663664,-1.1052996 -0.750089,-0.01161 c -0.584467,-0.0091 -0.75041,3.37e-4 -0.75155,0.04251 -0.0144,0.5325536 0.011,7.7084746 0.02736,7.7349666 0.01267,0.02051 0.294204,0.03199 0.625618,0.02552 l 0.602571,-0.01179 z m 27.07589,11.858844 c 0.385308,-0.09083 0.749209,-0.297285 1.046011,-0.59347 0.370073,-0.369287 0.565254,-0.73119 0.660176,-1.22408 0.02325,-0.120323 0.03969,-3.733768 0.04034,-8.821146 8.1e-4,-7.3912976 -0.0073,-8.6498126 -0.0605,-8.8455846 C 41.272636,6.0158151 40.619831,5.3858081 39.853142,5.225924 39.533904,5.159352 24.934912,5.159538 24.616939,5.226116 24.302924,5.29187 23.862351,5.5315199 23.622813,5.7668734 c -0.261949,0.257374 -0.423518,0.514703 -0.538371,0.857464 l -0.0926,0.276325 -0.01474,8.7016056 c -0.0095,5.60818 3.22e-4,8.809858 0.02746,9.006111 0.0233,0.168165 0.09445,0.411295 0.158892,0.543012 0.220009,0.449683 0.895642,1.011391 1.370287,1.139233 0.155048,0.04178 1.802699,0.05382 7.59501,0.05556 6.454168,0.0016 7.431728,-0.006 7.669377,-0.06196 z M 24.476645,25.82292 c -0.602678,-0.192755 -0.986573,-0.642171 -1.097035,-1.284268 -0.03941,-0.229081 -0.03385,-0.288657 0.04764,-0.51014 0.192903,-0.524295 0.728112,-3.210298 0.729748,-3.662321 4.81e-4,-0.122752 0.0097,-0.223186 0.02072,-0.223186 0.01096,0 0.168776,0.149971 0.35072,0.33327 0.35348,0.356111 0.6121,0.509036 1.051806,0.621945 0.22199,0.057 1.049042,0.06507 6.677222,0.06507 7.094472,0 6.59383,0.01887 7.137733,-0.269121 0.138653,-0.07342 0.36821,-0.245805 0.510143,-0.383094 l 0.258053,-0.249618 0.02884,0.33401 c 0.03208,0.3714 0.169716,1.077745 0.524828,2.693397 0.27196,1.237347 0.276958,1.378067 0.06423,1.81021 -0.151305,0.307345 -0.347588,0.495387 -0.679705,0.651161 l -0.235762,0.110579 -7.609562,0.0083 c -6.081839,0.0066 -7.643701,-0.0028 -7.779609,-0.04613 z m 0.937352,-5.004544 C 24.906625,20.643909 24.560454,20.334652 24.33567,19.855045 l -0.114095,-0.243434 -0.01262,-5.994127 c -0.0092,-4.3562926 6.7e-4,-6.0634326 0.03584,-6.2477776 0.08968,-0.469558 0.359379,-0.870154 0.754854,-1.12123 0.430297,-0.2731807 -0.0046,-0.2573188 7.225815,-0.2635443 6.069236,-0.00526 6.593757,-1.183e-4 6.7871,0.066062 0.54012,0.184904 0.982184,0.653613 1.122805,1.190464 0.02908,0.111204 0.05411,2.248951 0.07274,6.2272279 0.03143,6.714325 0.052,6.18433 -0.257591,6.650721 -0.208692,0.314418 -0.57964,0.590944 -0.943476,0.703321 -0.272227,0.08408 -0.383186,0.08545 -6.808413,0.08405 -6.468229,-0.0015 -6.534129,-0.0023 -6.784642,-0.08841 z m 7.098015,-5.390043 c 0.116531,-0.05152 0.266102,-0.145272 0.332376,-0.208318 0.128539,-0.122266 0.368378,-0.457372 0.368378,-0.514697 0,-0.03238 -0.335951,-0.08763 -0.537821,-0.08844 -0.05991,-3.2e-4 -0.122152,0.05166 -0.180473,0.150504 -0.215031,0.364454 -0.851591,0.365369 -1.089966,0.0016 -0.03845,-0.05868 -0.08027,-0.183938 -0.09293,-0.278353 l -0.02303,-0.171666 0.930223,-6.7e-4 c 0.511623,-3.22e-4 0.95144,-0.0147 0.977363,-0.03187 0.07836,-0.0519 -0.02912,-0.807949 -0.140396,-0.987744 -0.124925,-0.201838 -0.294339,-0.355476 -0.523163,-0.474444 -0.274351,-0.14264 -0.872526,-0.143554 -1.138945,-0.0018 -0.230565,0.122727 -0.490446,0.381087 -0.60068,0.597162 -0.301216,0.590432 -0.138741,1.459383 0.345459,1.847583 0.362935,0.290975 0.929625,0.35745 1.373596,0.161125 z m -1.197055,-1.748734 c 0.06152,-0.307566 0.273151,-0.470119 0.614471,-0.471956 0.345969,-0.0019 0.565145,0.146013 0.623197,0.42047 l 0.02923,0.138161 h -0.379741 c -0.208863,0 -0.500336,0.0126 -0.647718,0.02801 l -0.267969,0.02801 z m 3.348793,1.828804 c 0.08491,-0.02359 0.222458,-0.08908 0.305676,-0.145553 l 0.151288,-0.102674 0.01312,0.113908 c 0.01288,0.111428 0.02033,0.114176 0.344656,0.126357 l 0.331485,0.01246 -0.01264,-1.103572 -0.01264,-1.103574 -0.127928,-0.181902 c -0.17008,-0.241848 -0.435973,-0.374831 -0.81259,-0.406404 -0.458289,-0.03842 -0.717843,0.05359 -0.989428,0.350743 -0.119291,0.130522 -0.216887,0.275554 -0.216887,0.322291 0,0.07943 0.01873,0.08309 0.286949,0.05608 0.196845,-0.01982 0.334395,-0.06094 0.438032,-0.130918 0.113034,-0.07632 0.208678,-0.102023 0.379861,-0.102023 0.301295,0 0.42557,0.106357 0.42557,0.36421 0,0.20848 -0.03386,0.230613 -0.354198,0.23169 -0.319097,0.0011 -0.775656,0.108193 -0.985656,0.231263 -0.449153,0.263219 -0.483013,0.994141 -0.06057,1.307246 0.245482,0.181942 0.593759,0.244287 0.895873,0.16037 z m -0.377893,-0.48545 c -0.247814,-0.111883 -0.296999,-0.42153 -0.09407,-0.592279 0.144295,-0.121416 0.326537,-0.166383 0.696385,-0.171821 l 0.251273,-0.0037 -0.0094,0.29758 c -0.01239,0.395329 -0.103524,0.498148 -0.459414,0.518589 -0.154238,0.0089 -0.298098,-0.0092 -0.384808,-0.04837 z m -6.344263,0.355231 c 0.542196,-0.254355 0.77966,-0.719643 0.634348,-1.242942 -0.05373,-0.193469 -0.294798,-0.472807 -0.498025,-0.577068 l -0.14598,-0.07489 0.176355,-0.139675 c 0.317183,-0.251213 0.432149,-0.645601 0.30261,-1.038106 -0.0644,-0.195139 -0.374016,-0.468856 -0.607885,-0.537406 -0.107586,-0.03153 -0.554082,-0.06105 -1.105145,-0.07306 -0.757521,-0.01651 -0.924411,-0.0098 -0.923442,0.03715 6.68e-4,0.03152 -0.0084,0.849869 -0.02014,1.818562 -0.01173,0.968693 -0.0098,1.807175 0.0044,1.863296 l 0.02561,0.102032 0.961671,-0.01404 c 0.930702,-0.01359 0.96921,-0.01758 1.195744,-0.123854 z m -1.44565,-1.080516 v -0.488882 l 0.49951,1.58e-4 c 0.55323,1.61e-4 0.737233,0.06282 0.819407,0.278954 0.08321,0.218853 0.05066,0.35935 -0.123593,0.533609 l -0.165046,0.165044 h -0.515138 -0.51514 z m -5.8e-5,-1.541042 5.8e-5,-0.393232 h 0.525597 c 0.513546,0 0.528212,0.0026 0.639683,0.114087 0.09538,0.09538 0.112012,0.145222 0.101453,0.30393 -0.01971,0.295999 -0.112143,0.340068 -0.74602,0.355647 l -0.520825,0.01281 z m 3.145912,1.881135 c 0.01974,-0.789466 0.02813,-0.861299 0.117575,-1.005124 0.0982,-0.157908 0.264529,-0.260027 0.506532,-0.310981 0.180155,-0.03793 0.216221,-0.09066 0.231336,-0.338247 0.01602,-0.262454 -0.041,-0.307906 -0.299091,-0.238409 -0.12399,0.0334 -0.235659,0.105544 -0.335554,0.21682 -0.08234,0.09173 -0.16327,0.166781 -0.179828,0.166781 -0.01656,0 -0.04247,-0.07739 -0.0576,-0.17197 l -0.02751,-0.171969 -0.286143,0.01255 -0.286141,0.01255 -0.01191,1.254089 c -0.0065,0.689751 -0.0011,1.297995 0.01192,1.351654 0.02231,0.09136 0.042,0.09677 0.30949,0.08502 l 0.28566,-0.01254 z m 7.354495,0.412488 v -0.458998 l 0.172672,-0.168048 c 0.141585,-0.137793 0.179493,-0.156565 0.210588,-0.104278 0.02082,0.03508 0.198057,0.312459 0.393781,0.616417 l 0.355866,0.552651 0.416476,0.01223 c 0.328618,0.0096 0.411982,4.82e-4 0.395199,-0.0432 -0.01175,-0.03049 -0.243578,-0.404267 -0.515303,-0.830615 -0.271708,-0.426348 -0.494024,-0.791723 -0.494024,-0.811946 0,-0.02023 0.200867,-0.247876 0.446365,-0.505896 0.245506,-0.25802 0.446373,-0.490149 0.446373,-0.515842 0,-0.03044 -0.131565,-0.04672 -0.377646,-0.04672 h -0.377646 l -0.491838,0.510139 c -0.27051,0.280576 -0.51152,0.510139 -0.535593,0.510139 -0.02851,0 -0.04771,-0.359756 -0.05516,-1.030905 l -0.01134,-1.030904 -0.253298,-0.01302 c -0.475079,-0.0244 -0.426885,-0.235613 -0.426861,1.871076 8e-6,1.012243 0.01547,1.864355 0.03442,1.893582 0.02244,0.03467 0.144307,0.05314 0.350699,0.05314 h 0.31633 z"
       id="path1" /></g></svg>
